<svg xmlns="http://www.w3.org/2000/svg" xmlns:xlink="http://www.w3.org/1999/xlink" contentStyleType="text/css" height="644px" preserveAspectRatio="none" style="width:471px;height:644px;background:#F3F2F2;" version="1.1" viewBox="0 0 471 644" width="471px" zoomAndPan="magnify"><defs/><g><rect fill="#F3F2F2" height="644" style="stroke:none;stroke-width:1.0;" width="471" x="0" y="0"/><!--cluster Alertas y Validaci?n de Calibraci?n--><g id="cluster_Alertas y Validaci&#243;n de Calibraci&#243;n"><rect fill="none" height="506.85" rx="2.5" ry="2.5" style="stroke:#181818;stroke-width:1.0;" width="257" x="7" y="131.57"/><text fill="#000000" font-family="sans-serif" font-size="14" font-weight="bold" lengthAdjust="spacing" textLength="241.3731" x="14.8135" y="148.5359">Alertas y Validaci&#243;n de Calibraci&#243;n</text></g><g id="elem_UC1"><ellipse cx="147.0039" cy="316.9348" fill="#FFFFFF" rx="101.4739" ry="22.6948" style="stroke:#6B6866;stroke-width:0.5;"/><text fill="#000000" font-family="sans-serif" font-size="14" lengthAdjust="spacing" textLength="158.4654" x="64.7713" y="321.6678">Identificar vencimientos</text></g><g id="elem_UC2"><ellipse cx="146.9982" cy="187.9696" fill="#FFFFFF" rx="79.9982" ry="18.3996" style="stroke:#6B6866;stroke-width:0.5;"/><text fill="#000000" font-family="sans-serif" font-size="14" lengthAdjust="spacing" textLength="103.4316" x="92.2824" y="192.7026">Validar vigencia</text></g><g id="elem_UC3"><ellipse cx="151.9965" cy="459.0433" fill="#FFFFFF" rx="77.3165" ry="17.8633" style="stroke:#6B6866;stroke-width:0.5;"/><text fill="#000000" font-family="sans-serif" font-size="14" lengthAdjust="spacing" textLength="95.7456" x="101.1237" y="463.7763">Generar alerta</text></g><g id="elem_UC4"><ellipse cx="152.0041" cy="601.1588" fill="#FFFFFF" rx="94.2941" ry="21.2588" style="stroke:#6B6866;stroke-width:0.5;"/><text fill="#000000" font-family="sans-serif" font-size="14" lengthAdjust="spacing" textLength="140.9654" x="78.5214" y="605.8918">Notificar vencimiento</text></g><!--entity Admin--><g id="elem_Admin"><ellipse cx="146.9998" cy="14" fill="#EC3013" rx="8" ry="8" style="stroke:#EC3013;stroke-width:0.5;"/><path d="M146.9998,22 L146.9998,49 M133.9998,30 L159.9998,30 M146.9998,49 L133.9998,64 M146.9998,49 L159.9998,64 " fill="none" style="stroke:#EC3013;stroke-width:0.5;"/><text fill="#000000" font-family="sans-serif" font-size="14" lengthAdjust="spacing" textLength="94.7797" x="99.61" y="80.4659">Administrador</text></g><g id="elem_GMN12"><path d="M283.86,285.37 L283.86,312.93 L248.97,316.93 L283.86,320.93 L283.86,348.488 A0,0 0 0 0 283.86,348.488 L464.1361,348.488 A0,0 0 0 0 464.1361,348.488 L464.1361,295.37 L454.1361,285.37 L283.86,285.37 A0,0 0 0 0 283.86,285.37 " fill="#FEFFDD" style="stroke:#181818;stroke-width:0.5;"/><path d="M454.1361,285.37 L454.1361,295.37 L464.1361,295.37 L454.1361,285.37 " fill="#FEFFDD" style="stroke:#181818;stroke-width:0.5;"/><text fill="#000000" font-family="sans-serif" font-size="13" lengthAdjust="spacing" textLength="159.2761" x="289.86" y="304.267">Comparar fecha de &#250;ltima</text><text fill="#000000" font-family="sans-serif" font-size="13" lengthAdjust="spacing" textLength="158.9901" x="289.86" y="321.973">calibraci&#243;n con frecuencia</text><text fill="#000000" font-family="sans-serif" font-size="13" lengthAdjust="spacing" textLength="116.8311" x="289.86" y="339.679">versus fecha actual</text></g><g id="elem_GMN15"><path d="M280.19,427.48 L280.19,455.04 L229.79,459.04 L280.19,463.04 L280.19,490.598 A0,0 0 0 0 280.19,490.598 L449.8191,490.598 A0,0 0 0 0 449.8191,490.598 L449.8191,437.48 L439.8191,427.48 L280.19,427.48 A0,0 0 0 0 280.19,427.48 " fill="#FEFFDD" style="stroke:#181818;stroke-width:0.5;"/><path d="M439.8191,427.48 L439.8191,437.48 L449.8191,437.48 L439.8191,427.48 " fill="#FEFFDD" style="stroke:#181818;stroke-width:0.5;"/><text fill="#000000" font-family="sans-serif" font-size="13" lengthAdjust="spacing" textLength="137.7481" x="286.19" y="446.377">Generar alerta cuando</text><text fill="#000000" font-family="sans-serif" font-size="13" lengthAdjust="spacing" textLength="148.6291" x="286.19" y="464.083">vencimiento est&#233; dentro</text><text fill="#000000" font-family="sans-serif" font-size="13" lengthAdjust="spacing" textLength="61.828" x="286.19" y="481.789">de 30 d&#237;as</text></g><g id="elem_GMN18"><path d="M281.63,569.6 L281.63,597.16 L246.46,601.16 L281.63,605.16 L281.63,632.718 A0,0 0 0 0 281.63,632.718 L450.3621,632.718 A0,0 0 0 0 450.3621,632.718 L450.3621,579.6 L440.3621,569.6 L281.63,569.6 A0,0 0 0 0 281.63,569.6 " fill="#FEFFDD" style="stroke:#181818;stroke-width:0.5;"/><path d="M440.3621,569.6 L440.3621,579.6 L450.3621,579.6 L440.3621,569.6 " fill="#FEFFDD" style="stroke:#181818;stroke-width:0.5;"/><text fill="#000000" font-family="sans-serif" font-size="13" lengthAdjust="spacing" textLength="147.7321" x="287.63" y="588.497">Mostrar indicador visual</text><text fill="#000000" font-family="sans-serif" font-size="13" lengthAdjust="spacing" textLength="130.4161" x="287.63" y="606.203">en listado de equipos</text><text fill="#000000" font-family="sans-serif" font-size="13" lengthAdjust="spacing" textLength="112.6711" x="287.63" y="623.909">pr&#243;ximos a vencer</text></g><!--link Admin to UC2--><g id="link_Admin_UC2"><path d="M147,84.92 C147,112.46 147,142.11 147,163.16 " fill="none" id="Admin-to-UC2" style="stroke:#181818;stroke-width:1.0;"/><polygon fill="#181818" points="147,169.16,151,160.16,147,164.16,143,160.16,147,169.16" style="stroke:#181818;stroke-width:1.0;"/></g><!--link UC2 to UC1--><g id="link_UC2_UC1"><path d="M147,206.62 C147,229.51 147,263.43 147,288.17 " fill="none" id="UC2-to-UC1" style="stroke:#181818;stroke-width:1.0;stroke-dasharray:7.0,7.0;"/><polygon fill="#181818" points="147,294.17,151,285.17,147,289.17,143,285.17,147,294.17" style="stroke:#181818;stroke-width:1.0;"/><text fill="#000000" font-family="sans-serif" font-size="13" lengthAdjust="spacing" textLength="57.5771" x="148" y="251.267">&#171;include&#187;</text></g><!--link UC1 to UC3--><g id="link_UC1_UC3"><path d="M147.78,339.82 C148.78,367.68 150.2559,409.2438 151.1659,434.7238 " fill="none" id="UC1-to-UC3" style="stroke:#181818;stroke-width:1.0;stroke-dasharray:7.0,7.0;"/><polygon fill="#181818" points="151.38,440.72,155.0562,431.583,151.2015,435.7232,147.0613,431.8685,151.38,440.72" style="stroke:#181818;stroke-width:1.0;"/><text fill="#000000" font-family="sans-serif" font-size="13" lengthAdjust="spacing" textLength="57.5771" x="150.8" y="393.377">&#171;include&#187;</text></g><!--link UC3 to UC4--><g id="link_UC3_UC4"><path d="M152,477.22 C152,503.09 152,545.96 152,573.66 " fill="none" id="UC3-to-UC4" style="stroke:#181818;stroke-width:1.0;stroke-dasharray:7.0,7.0;"/><polygon fill="#181818" points="152,579.66,156,570.66,152,574.66,148,570.66,152,579.66" style="stroke:#181818;stroke-width:1.0;"/><text fill="#000000" font-family="sans-serif" font-size="13" lengthAdjust="spacing" textLength="57.5771" x="153" y="535.497">&#171;include&#187;</text></g><!--SRC=[VPBFRjD04CRl-nH3EBTguYX2g8e4fa4vK2G4lKzsn-cgzawONLSWn0DnuDGRrxmOini3Rb9XoP9tlf-_-RVF73K-4BnPVxYgFwxVNqFYdRwmuPIu0-U5RF8SJBppOOU27MpGtcs5- -1gRbdW-QfQpLQp4O4siRncSIG3SbLN5zFg13bsEi7wI1OZFV9QR1Ol5eide6EtfZp6b5mmUUKw7tnCWevb0XYXH8p9BMBOjgHCIv9K-Gets7g7rkyV0ZY2MeyREPmdyCt0dwmmMJiAoJVUei0z1Uixhm6E9SMdUZfc3wxA-MqcSM1cO-Oj1H9biDGo4DMOkEOdyWtWt7mtfZG6PsVBugqld9_dxocyXCjB7spRErekJOuSbEf4gGPbVgIOm8b0_FOs0JT3WpLtUHS23TbRp0FR_sgJxr0rEneTM0xGwC3xqhwgzoInZyD_kgaUMqF1GSvocYkFuV5ymFOO71UdlxC0Ycd_0_9Y94jQJtK1RlyJut_Cvqg-utn117nmEc2zABggc6i2e02jNXyDPZ_wtFiTHutlPF_mnNSS0KiD9Fzo_0O0]--></g></svg>