<svg xmlns="http://www.w3.org/2000/svg" xmlns:xlink="http://www.w3.org/1999/xlink" contentStyleType="text/css" height="369px" preserveAspectRatio="none" style="width:1378px;height:369px;background:#F3F2F2;" version="1.1" viewBox="0 0 1378 369" width="1378px" zoomAndPan="magnify"><defs/><g><rect fill="#F3F2F2" height="369" style="stroke:none;stroke-width:1.0;" width="1378" x="0" y="0"/><!--cluster Gesti?n de Hojas de Vida--><g id="cluster_Gesti&#243;n de Hojas de Vida"><rect fill="none" height="232.06" rx="2.5" ry="2.5" style="stroke:#181818;stroke-width:1.0;" width="895" x="7" y="131.57"/><text fill="#000000" font-family="sans-serif" font-size="14" font-weight="bold" lengthAdjust="spacing" textLength="172.1574" x="368.4213" y="148.5359">Gesti&#243;n de Hojas de Vida</text></g><g id="elem_UC1"><ellipse cx="121.9995" cy="325.5099" fill="#FFFFFF" rx="98.5995" ry="22.1199" style="stroke:#6B6866;stroke-width:0.5;"/><text fill="#000000" font-family="sans-serif" font-size="14" lengthAdjust="spacing" textLength="151.5354" x="43.2317" y="330.2429">Registrar identificaci&#243;n</text></g><g id="elem_UC2"><ellipse cx="352.0012" cy="325.5142" fill="#FFFFFF" rx="96.0212" ry="21.6042" style="stroke:#6B6866;stroke-width:0.5;"/><text fill="#000000" font-family="sans-serif" font-size="14" lengthAdjust="spacing" textLength="145.2355" x="276.3835" y="330.2472">Registrar serie/c&#243;digo</text></g><g id="elem_UC3"><ellipse cx="108.9987" cy="192.8297" fill="#FFFFFF" rx="85.8487" ry="19.5697" style="stroke:#6B6866;stroke-width:0.5;"/><text fill="#000000" font-family="sans-serif" font-size="14" lengthAdjust="spacing" textLength="119.3635" x="46.3169" y="197.5627">Crear hoja de vida</text></g><g id="elem_UC4"><ellipse cx="580.001" cy="325.5142" fill="#FFFFFF" rx="96.671" ry="21.7342" style="stroke:#6B6866;stroke-width:0.5;"/><text fill="#000000" font-family="sans-serif" font-size="14" lengthAdjust="spacing" textLength="146.8314" x="503.5853" y="330.2472">Consultar hoja de vida</text></g><g id="elem_UC5"><ellipse cx="325.9981" cy="192.8256" fill="#FFFFFF" rx="96.0781" ry="21.6156" style="stroke:#6B6866;stroke-width:0.5;"/><text fill="#000000" font-family="sans-serif" font-size="14" lengthAdjust="spacing" textLength="145.3754" x="250.3104" y="197.5586">Modificar hoja de vida</text></g><g id="elem_UC6"><ellipse cx="792.9954" cy="192.8271" fill="#FFFFFF" rx="92.7854" ry="20.9571" style="stroke:#6B6866;stroke-width:0.5;"/><text fill="#000000" font-family="sans-serif" font-size="14" lengthAdjust="spacing" textLength="137.1995" x="721.3957" y="197.5601">Eliminar hoja de vida</text></g><g id="elem_UC7"><ellipse cx="561.0044" cy="192.8329" fill="#FFFFFF" rx="104.3144" ry="23.2629" style="stroke:#6B6866;stroke-width:0.5;"/><text fill="#000000" font-family="sans-serif" font-size="14" lengthAdjust="spacing" textLength="165.2274" x="475.3907" y="197.5658">Registrar mantenimiento</text></g><g id="elem_UC8"><ellipse cx="781.9975" cy="325.5053" fill="#FFFFFF" rx="69.9875" ry="17.0253" style="stroke:#6B6866;stroke-width:0.5;"/><text fill="#000000" font-family="sans-serif" font-size="14" lengthAdjust="spacing" textLength="79.0717" x="739.4616" y="330.2383">Ver historial</text></g><!--entity Admin--><g id="elem_Admin"><ellipse cx="442.9998" cy="14" fill="#EC3013" rx="8" ry="8" style="stroke:#EC3013;stroke-width:0.5;"/><path d="M442.9998,22 L442.9998,49 M429.9998,30 L455.9998,30 M442.9998,49 L429.9998,64 M442.9998,49 L455.9998,64 " fill="none" style="stroke:#EC3013;stroke-width:0.5;"/><text fill="#000000" font-family="sans-serif" font-size="14" lengthAdjust="spacing" textLength="94.7797" x="395.61" y="80.4659">Administrador</text></g><g id="elem_GMN21"><path d="M920.61,161.27 L920.61,224.388 L1129.3952,224.388 L1129.3952,171.27 L1119.3952,161.27 L920.61,161.27 " fill="#FEFFDD" style="stroke:#181818;stroke-width:0.5;"/><path d="M1119.3952,161.27 L1119.3952,171.27 L1129.3952,171.27 L1119.3952,161.27 " fill="#FEFFDD" style="stroke:#181818;stroke-width:1.0;"/><text fill="#000000" font-family="sans-serif" font-size="13" lengthAdjust="spacing" textLength="133.4191" x="926.61" y="180.167">Crear formulario para</text><text fill="#000000" font-family="sans-serif" font-size="13" lengthAdjust="spacing" textLength="154.0371" x="926.61" y="197.873">identificaci&#243;n, fabricante,</text><text fill="#000000" font-family="sans-serif" font-size="13" lengthAdjust="spacing" textLength="187.7852" x="926.61" y="215.579">datos t&#233;cnicos, servicio t&#233;cnico</text></g><g id="elem_GMN24"><path d="M1164.6,161.27 L1164.6,224.388 L1371.4092,224.388 L1371.4092,171.27 L1361.4092,161.27 L1164.6,161.27 " fill="#FEFFDD" style="stroke:#181818;stroke-width:0.5;"/><path d="M1361.4092,161.27 L1361.4092,171.27 L1371.4092,171.27 L1361.4092,161.27 " fill="#FEFFDD" style="stroke:#181818;stroke-width:1.0;"/><text fill="#000000" font-family="sans-serif" font-size="13" lengthAdjust="spacing" textLength="167.5571" x="1170.6" y="180.167">Registrar autom&#225;ticamente</text><text fill="#000000" font-family="sans-serif" font-size="13" lengthAdjust="spacing" textLength="185.8092" x="1170.6" y="197.873">intervenciones en hoja de vida</text><text fill="#000000" font-family="sans-serif" font-size="13" lengthAdjust="spacing" textLength="172.0421" x="1170.6" y="215.579">cuando se completa reporte</text></g><!--link Admin to UC3--><g id="link_Admin_UC3"><path d="M395.12,58.15 C347.37,71.14 272.62,93.94 212,123.57 C183.09,137.7 157.5211,155.1283 137.3011,170.1083 " fill="none" id="Admin-to-UC3" style="stroke:#181818;stroke-width:1.0;"/><polygon fill="#181818" points="132.48,173.68,142.0928,171.5365,136.4976,170.7036,137.3305,165.1084,132.48,173.68" style="stroke:#181818;stroke-width:1.0;"/></g><!--link UC3 to UC1--><g id="link_UC3_UC1"><path d="M110.89,212.83 C113.28,236.9 116.807,272.2794 119.297,297.3494 " fill="none" id="UC3-to-UC1" style="stroke:#181818;stroke-width:1.0;stroke-dasharray:7.0,7.0;"/><polygon fill="#181818" points="119.89,303.32,122.9809,293.9687,119.3958,298.3445,115.0201,294.7594,119.89,303.32" style="stroke:#181818;stroke-width:1.0;"/><text fill="#000000" font-family="sans-serif" font-size="13" lengthAdjust="spacing" textLength="57.5771" x="117.66" y="269.287">&#171;include&#187;</text></g><!--link UC3 to UC2--><g id="link_UC3_UC2"><path d="M141.52,211.32 C186.91,235.73 263.7054,277.0287 310.8354,302.3687 " fill="none" id="UC3-to-UC2" style="stroke:#181818;stroke-width:1.0;stroke-dasharray:7.0,7.0;"/><polygon fill="#181818" points="316.12,305.21,310.0873,297.425,311.7162,302.8422,306.2989,304.4711,316.12,305.21" style="stroke:#181818;stroke-width:1.0;"/><text fill="#000000" font-family="sans-serif" font-size="13" lengthAdjust="spacing" textLength="57.5771" x="253.27" y="269.287">&#171;include&#187;</text></g><!--link UC3 to UC4--><g id="link_UC3_UC4"><path d="M159.49,209.06 C176.18,214.03 194.87,219.52 212,224.39 C319.63,254.99 439.7317,287.2773 512.8717,306.7373 " fill="none" id="UC3-to-UC4" style="stroke:#181818;stroke-width:1.0;stroke-dasharray:7.0,7.0;"/><polygon fill="#181818" points="518.67,308.28,511.0011,302.1004,513.8381,306.9944,508.9441,309.8314,518.67,308.28" style="stroke:#181818;stroke-width:1.0;"/><text fill="#000000" font-family="sans-serif" font-size="13" lengthAdjust="spacing" textLength="57.5771" x="384.13" y="269.287">&#171;include&#187;</text></g><!--link Admin to UC5--><g id="link_Admin_UC5"><path d="M411.95,84.72 C389.61,112.56 364.1156,144.3307 346.1456,166.7207 " fill="none" id="Admin-to-UC5" style="stroke:#181818;stroke-width:1.0;"/><polygon fill="#181818" points="342.39,171.4,351.1429,166.8848,345.5196,167.5006,344.9038,161.8774,342.39,171.4" style="stroke:#181818;stroke-width:1.0;"/></g><!--link UC5 to UC4--><g id="link_UC5_UC4"><path d="M374.98,211.8 C403.55,222.89 439.96,238.09 471,254.39 C499.49,269.35 525.2209,286.0733 546.7509,300.9233 " fill="none" id="UC5-to-UC4" style="stroke:#181818;stroke-width:1.0;stroke-dasharray:7.0,7.0;"/><polygon fill="#181818" points="551.69,304.33,546.5525,295.9273,547.5741,301.4911,542.0103,302.5127,551.69,304.33" style="stroke:#181818;stroke-width:1.0;"/><text fill="#000000" font-family="sans-serif" font-size="13" lengthAdjust="spacing" textLength="57.5771" x="502.92" y="269.287">&#171;include&#187;</text></g><!--link Admin to UC6--><g id="link_Admin_UC6"><path d="M490.74,57.78 C540.11,70.76 618.84,93.84 683,123.57 C712.77,137.37 739.4124,154.2357 761.0724,169.0957 " fill="none" id="Admin-to-UC6" style="stroke:#181818;stroke-width:1.0;"/><polygon fill="#181818" points="766.02,172.49,760.8615,164.1001,761.897,169.6614,756.3357,170.6969,766.02,172.49" style="stroke:#181818;stroke-width:1.0;"/></g><!--link Admin to UC7--><g id="link_Admin_UC7"><path d="M474.31,84.72 C496.3,111.89 521.1453,142.5861 539.3553,165.0861 " fill="none" id="Admin-to-UC7" style="stroke:#181818;stroke-width:1.0;"/><polygon fill="#181818" points="543.13,169.75,540.5773,160.2377,539.9845,165.8634,534.3588,165.2706,543.13,169.75" style="stroke:#181818;stroke-width:1.0;"/></g><!--link UC7 to UC8--><g id="link_UC7_UC8"><path d="M597,215.12 C641.76,241.59 711.9054,283.0559 751.2054,306.2959 " fill="none" id="UC7-to-UC8" style="stroke:#181818;stroke-width:1.0;stroke-dasharray:7.0,7.0;"/><polygon fill="#181818" points="756.37,309.35,750.6592,301.3259,752.0662,306.805,746.5871,308.212,756.37,309.35" style="stroke:#181818;stroke-width:1.0;"/><text fill="#000000" font-family="sans-serif" font-size="13" lengthAdjust="spacing" textLength="57.5771" x="692.29" y="269.287">&#171;include&#187;</text></g><!--link UC3 to GMN21--><g id="link_UC3_GMN21"><path d="M127.23,173.41 C149.09,151.66 188.03,117.69 229.5,104.07 C298.64,81.35 814.59,83.84 884.5,104.07 C922.89,115.18 960.86,140.25 987.63,160.92 " fill="none" id="UC3-GMN21" style="stroke:#181818;stroke-width:1.0;stroke-dasharray:7.0,7.0;"/></g><!--link UC7 to GMN24--><g id="link_UC7_GMN24"><path d="M586.78,169.96 C613.21,148.17 656.54,116.87 700.5,104.07 C746.27,90.74 1083.76,90.67 1129.5,104.07 C1167.46,115.19 1204.88,140.26 1231.24,160.93 " fill="none" id="UC7-GMN24" style="stroke:#181818;stroke-width:1.0;stroke-dasharray:7.0,7.0;"/></g><!--SRC=[ZPFFZjCm4CRlVeeXNBiBRRTfXLQL8BIm1q1QiNjtxKdMREAfRASNnCDmvBoFq1TZOb8sIOD492l-yvlloymuBpJcnYAylxdTP5zlldo6G7iUiACGg09j7AfWo0h_QEnUEbd1Jgh7mb5jTKObENYvdMzdsrc7a2gGUqTEeskHJJP_FPsV8KEbCwpsgAJ7dbQwIrTfEW8DrVBu216z87chAsED3qvgSWb83t57Y2P5QOiI8Vc0FfZZamMDy96-CSEJUwDb0jy5d9mWkSKYAZam6cqmkL5IDO5HzowRZiCUdS5NwlYaJK4jEkkYcKF67jYvCJv4uqZDUnHPNvTXdBpgafz8nsyR9HTTSbCQBiOuc8vdKqaRq78OL-2KpRABtYFBCKpEoB85LkA74B7mS76nZfdnWClBPZw5Dt1zRQmgQuthTUTazi-Jgy59Jtp1uE9_mBItMdBOiWrR3SCi1GHdYeS0bBUj-TEtd5nLbz8PWkPcylxWTamWbpl7AoxSX8-r3EGX77yfQnJvIND13aPn_6bFeDNGE9xxDgL-ReQi-Nyz_WmiNh4dDkRySWUqh6VH0zfURnbGjRIQs1GKLViIWmI7Ut8S_TVsDm00]--></g></svg>